{
  "accessors": [
    {
      "bufferView": 2,
      "componentType": 5126,
      "count": 852,
      "max": [
        0.1703677475452423,
        -0.008215425536036491,
        0.07338976114988327
      ],
      "min": [
        -0.11953726410865784,
        -0.03179984912276268,
        -0.4636337161064148
      ],
      "type": "VEC3"
    },
    {
      "bufferView": 2,
      "byteOffset": 10224,
      "componentType": 5126,
      "count": 852,
      "max": [
        0.9999186992645264,
        1.0,
        0.9999027848243713
      ],
      "min": [
        -0.99991774559021,
        -1.0,
        -0.9999029040336609
      ],
      "type": "VEC3"
    },
    {
      "bufferView": 3,
      "componentType": 5126,
      "count": 852,
      "max": [
        0.9999997019767761,
        1.0,
        0.9957937598228455,
        1.0
      ],
      "min": [
        -0.9434973001480103,
        -0.9999949932098389,
        -0.9998130202293396,
        -1.0
      ],
      "type": "VEC4"
    },
    {
      "bufferView": 1,
      "componentType": 5126,
      "count": 852,
      "max": [
        0.571212649345398,
        0.9993550181388855
      ],
      "min": [
        0.000644926680251956,
        0.000644926680251956
      ],
      "type": "VEC2"
    },
    {
      "bufferView": 1,
      "byteOffset": 6816,
      "componentType": 5126,
      "count": 852,
      "max": [
        0.571212649345398,
        0.9993550181388855
      ],
      "min": [
        0.000644926680251956,
        0.000644926680251956
      ],
      "type": "VEC2"
    },
    {
      "bufferView": 0,
      "componentType": 5125,
      "count": 2520,
      "type": "SCALAR"
    },
    {
      "bufferView": 2,
      "byteOffset": 20448,
      "componentType": 5126,
      "count": 186,
      "max": [
        0.012598717585206032,
        -0.002202044241130352,
        0.015830978751182556
      ],
      "min": [
        -0.012224520556628704,
        -0.019008390605449677,
        -0.1422315537929535
      ],
      "type": "VEC3"
    },
    {
      "bufferView": 2,
      "byteOffset": 22680,
      "componentType": 5126,
      "count": 186,
      "max": [
        0.999988853931427,
        0.9999993443489075,
        0.9999841451644897
      ],
      "min": [
        -0.9999889135360718,
        -1.0,
        -0.9999841451644897
      ],
      "type": "VEC3"
    },
    {
      "bufferView": 3,
      "byteOffset": 13632,
      "componentType": 5126,
      "count": 186,
      "max": [
        0.5395107865333557,
        0.8846630454063416,
        0.9999969601631165,
        1.0
      ],
      "min": [
        -0.999988853931427,
        -0.9999952912330627,
        -0.999995231628418,
        1.0
      ],
      "type": "VEC4"
    },
    {
      "bufferView": 1,
      "byteOffset": 13632,
      "componentType": 5126,
      "count": 186,
      "max": [
        0.6832842230796814,
        0.993562638759613
      ],
      "min": [
        0.32213538885116577,
        0.7973479628562927
      ],
      "type": "VEC2"
    },
    {
      "bufferView": 1,
      "byteOffset": 15120,
      "componentType": 5126,
      "count": 186,
      "max": [
        0.6832842230796814,
        0.993562638759613
      ],
      "min": [
        0.32213538885116577,
        0.7973479628562927
      ],
      "type": "VEC2"
    },
    {
      "bufferView": 0,
      "byteOffset": 10080,
      "componentType": 5125,
      "count": 576,
      "type": "SCALAR"
    },
    {
      "bufferView": 2,
      "byteOffset": 24912,
      "componentType": 5126,
      "count": 3408,
      "max": [
        0.1353035420179367,
        0.15525607764720917,
        0.4787154197692871
      ],
      "min": [
        -0.3286394476890564,
        -0.15525607764720917,
        -0.4264213442802429
      ],
      "type": "VEC3"
    },
    {
      "bufferView": 2,
      "byteOffset": 65808,
      "componentType": 5126,
      "count": 3408,
      "max": [
        1.0,
        1.0,
        1.0
      ],
      "min": [
        -1.0,
        -1.0,
        -1.0
      ],
      "type": "VEC3"
    },
    {
      "bufferView": 3,
      "byteOffset": 16608,
      "componentType": 5126,
      "count": 3408,
      "max": [
        1.0,
        1.0,
        1.0,
        1.0
      ],
      "min": [
        -1.0,
        -1.0,
        -1.0,
        -1.0
      ],
      "type": "VEC4"
    },
    {
      "bufferView": 1,
      "byteOffset": 16608,
      "componentType": 5126,
      "count": 3408,
      "max": [
        0.9833399057388306,
        0.990480899810791
      ],
      "min": [
        0.006832122802734375,
        0.016660073772072792
      ],
      "type": "VEC2"
    },
    {
      "bufferView": 1,
      "byteOffset": 43872,
      "componentType": 5126,
      "count": 3408,
      "max": [
        0.9833399057388306,
        0.990480899810791
      ],
      "min": [
        0.006832122802734375,
        0.016660073772072792
      ],
      "type": "VEC2"
    },
    {
      "bufferView": 0,
      "byteOffset": 12384,
      "componentType": 5125,
      "count": 9834,
      "type": "SCALAR"
    }
  ],
  "asset": {
    "extras": {
      "author": "Daz (https://sketchfab.com/Darren.Hogan)",
      "license": "CC-BY-NC-4.0 (http://creativecommons.org/licenses/by-nc/4.0/)",
      "source": "https://sketchfab.com/3d-models/water-pump-607c8859f08d4893aa6935eca3dd2236",
      "title": "Water pump"
    },
    "generator": "Sketchfab-13.40.0",
    "version": "2.0"
  },
  "bufferViews": [
    {
      "buffer": 0,
      "byteLength": 51720,
      "name": "floatBufferViews",
      "target": 34963
    },
    {
      "buffer": 0,
      "byteLength": 71136,
      "byteOffset": 51720,
      "byteStride": 8,
      "name": "floatBufferViews",
      "target": 34962
    },
    {
      "buffer": 0,
      "byteLength": 106704,
      "byteOffset": 122856,
      "byteStride": 12,
      "name": "floatBufferViews",
      "target": 34962
    },
    {
      "buffer": 0,
      "byteLength": 71136,
      "byteOffset": 229560,
      "byteStride": 16,
      "name": "floatBufferViews",
      "target": 34962
    }
  ],
  "buffers": [
    {
      "byteLength": 300696,
      "uri": "scene.bin"
    }
  ],
  "images": [
    {
      "uri": "textures/Pump_baseColor.png"
    },
    {
      "uri": "textures/Pump_metallicRoughness.png"
    },
    {
      "uri": "textures/Pump_normal.png"
    }
  ],
  "materials": [
    {
      "doubleSided": true,
      "name": "Pump",
      "normalTexture": {
        "index": 2
      },
      "pbrMetallicRoughness": {
        "baseColorTexture": {
          "index": 0
        },
        "metallicFactor": 0.529703460299577,
        "metallicRoughnessTexture": {
          "index": 1
        }
      }
    }
  ],
  "meshes": [
    {
      "name": "Lever_Pump_0",
      "primitives": [
        {
          "attributes": {
            "NORMAL": 1,
            "POSITION": 0,
            "TANGENT": 2,
            "TEXCOORD_0": 3,
            "TEXCOORD_1": 4
          },
          "indices": 5,
          "material": 0,
          "mode": 4
        }
      ]
    },
    {
      "name": "Piston_Pump_0",
      "primitives": [
        {
          "attributes": {
            "NORMAL": 7,
            "POSITION": 6,
            "TANGENT": 8,
            "TEXCOORD_0": 9,
            "TEXCOORD_1": 10
          },
          "indices": 11,
          "material": 0,
          "mode": 4
        }
      ]
    },
    {
      "name": "Pump_Pump_0",
      "primitives": [
        {
          "attributes": {
            "NORMAL": 13,
            "POSITION": 12,
            "TANGENT": 14,
            "TEXCOORD_0": 15,
            "TEXCOORD_1": 16
          },
          "indices": 17,
          "material": 0,
          "mode": 4
        }
      ]
    }
  ],
  "nodes": [
    {
      "children": [
        1
      ],
      "matrix": [
        1.0,
        0.0,
        0.0,
        0.0,
        0.0,
        2.220446049250313e-16,
        -1.0,
        0.0,
        0.0,
        1.0,
        2.220446049250313e-16,
        0.0,
        0.0,
        0.0,
        0.0,
        1.0
      ],
      "name": "Sketchfab_model"
    },
    {
      "children": [
        2
      ],
      "matrix": [
        1.0,
        0.0,
        0.0,
        0.0,
        0.0,
        0.0,
        1.0,
        0.0,
        0.0,
        -1.0,
        0.0,
        0.0,
        0.0,
        0.0,
        0.0,
        1.0
      ],
      "name": "66d57de924624738bdb70798fab70475.fbx"
    },
    {
      "children": [
        3,
        5,
        7
      ],
      "name": "RootNode"
    },
    {
      "children": [
        4
      ],
      "matrix": [
        100.0,
        0.0,
        0.0,
        0.0,
        0.0,
        -1.629206793918314e-05,
        -99.99999999999868,
        0.0,
        0.0,
        99.99999999999868,
        -1.629206793918314e-05,
        0.0,
        8.439326286315918,
        45.8951301574707,
        -1.976555585861206,
        1.0
      ],
      "name": "Lever"
    },
    {
      "mesh": 0,
      "name": "Lever_Pump_0"
    },
    {
      "children": [
        6
      ],
      "matrix": [
        100.0,
        0.0,
        0.0,
        0.0,
        -0.0,
        -1.629206793918314e-05,
        -99.99999999999868,
        0.0,
        0.0,
        99.99999999999868,
        -1.629206793918314e-05,
        0.0,
        -2.1093475818634033,
        49.848777770996094,
        -1.0427179336547852,
        1.0
      ],
      "name": "Piston"
    },
    {
      "mesh": 1,
      "name": "Piston_Pump_0"
    },
    {
      "children": [
        8
      ],
      "matrix": [
        100.0,
        0.0,
        0.0,
        0.0,
        0.0,
        -1.629206793918314e-05,
        -99.99999999999868,
        0.0,
        0.0,
        99.99999999999868,
        -1.629206793918314e-05,
        0.0,
        0.0,
        0.0,
        0.0,
        1.0
      ],
      "name": "Pump"
    },
    {
      "mesh": 2,
      "name": "Pump_Pump_0"
    }
  ],
  "samplers": [
    {
      "magFilter": 9729,
      "minFilter": 9987,
      "wrapS": 10497,
      "wrapT": 10497
    }
  ],
  "scene": 0,
  "scenes": [
    {
      "name": "Sketchfab_Scene",
      "nodes": [
        0
      ]
    }
  ],
  "textures": [
    {
      "sampler": 0,
      "source": 0
    },
    {
      "sampler": 0,
      "source": 1
    },
    {
      "sampler": 0,
      "source": 2
    }
  ]
}
