{
  "accessors": [
    {
      "bufferView": 2,
      "componentType": 5126,
      "count": 240,
      "max": [
        0.44382938742637634,
        0.18167319893836975,
        0.16507220268249512
      ],
      "min": [
        -0.461716890335083,
        -0.1804112046957016,
        -0.20229209959506989
      ],
      "type": "VEC3"
    },
    {
      "bufferView": 2,
      "byteOffset": 2880,
      "componentType": 5126,
      "count": 240,
      "max": [
        0.9999266862869263,
        0.9996674060821533,
        0.9994542002677917
      ],
      "min": [
        -0.9986608028411865,
        -0.999664306640625,
        -0.9994539022445679
      ],
      "type": "VEC3"
    },
    {
      "bufferView": 1,
      "componentType": 5126,
      "count": 240,
      "max": [
        0.18571439385414124,
        0.1319776028394699
      ],
      "min": [
        -0.18556509912014008,
        -0.11617930233478546
      ],
      "type": "VEC2"
    },
    {
      "bufferView": 0,
      "componentType": 5125,
      "count": 216,
      "type": "SCALAR"
    },
    {
      "bufferView": 2,
      "byteOffset": 5760,
      "componentType": 5126,
      "count": 12150,
      "max": [
        0.41789430379867554,
        0.23314140737056732,
        0.29906389117240906
      ],
      "min": [
        -0.41356179118156433,
        -0.23381249606609344,
        -0.13296790421009064
      ],
      "type": "VEC3"
    },
    {
      "bufferView": 2,
      "byteOffset": 151560,
      "componentType": 5126,
      "count": 12150,
      "max": [
        0.9995980858802795,
        0.9993450045585632,
        0.9995110034942627
      ],
      "min": [
        -0.9996002912521362,
        -0.9992055892944336,
        -0.9993355870246887
      ],
      "type": "VEC3"
    },
    {
      "bufferView": 1,
      "byteOffset": 1920,
      "componentType": 5126,
      "count": 12150,
      "max": [
        0.18551300466060638,
        0.14812040328979492
      ],
      "min": [
        -0.18554890155792236,
        -0.1658959984779358
      ],
      "type": "VEC2"
    },
    {
      "bufferView": 0,
      "byteOffset": 864,
      "componentType": 5125,
      "count": 14040,
      "type": "SCALAR"
    },
    {
      "bufferView": 2,
      "byteOffset": 297360,
      "componentType": 5126,
      "count": 496,
      "max": [
        0.5213978886604309,
        0.34670451283454895,
        0.20588649809360504
      ],
      "min": [
        -0.535171627998352,
        -0.4534662961959839,
        -0.42879000306129456
      ],
      "type": "VEC3"
    },
    {
      "bufferView": 2,
      "byteOffset": 303312,
      "componentType": 5126,
      "count": 496,
      "max": [
        1.0,
        1.0,
        1.0
      ],
      "min": [
        -1.0,
        -1.0,
        -1.0
      ],
      "type": "VEC3"
    },
    {
      "bufferView": 1,
      "byteOffset": 99120,
      "componentType": 5126,
      "count": 496,
      "max": [
        0.18983499705791473,
        0.15788279473781586
      ],
      "min": [
        -0.18983499705791473,
        -0.14034520089626312
      ],
      "type": "VEC2"
    },
    {
      "bufferView": 0,
      "byteOffset": 57024,
      "componentType": 5125,
      "count": 468,
      "type": "SCALAR"
    }
  ],
  "asset": {
    "extras": {
      "author": "jaimerog (https://sketchfab.com/jaimerog)",
      "license": "CC-BY-4.0 (http://creativecommons.org/licenses/by/4.0/)",
      "source": "https://sketchfab.com/3d-models/nft-hydroponics-system-32d2e3350354429ea2d44c4a3184dfb3",
      "title": "NFT Hydroponics System"
    },
    "generator": "Sketchfab-12.67.0",
    "version": "2.0"
  },
  "bufferViews": [
    {
      "buffer": 0,
      "byteLength": 58896,
      "name": "floatBufferViews",
      "target": 34963
    },
    {
      "buffer": 0,
      "byteLength": 103088,
      "byteOffset": 58896,
      "byteStride": 8,
      "name": "floatBufferViews",
      "target": 34962
    },
    {
      "buffer": 0,
      "byteLength": 309264,
      "byteOffset": 161984,
      "byteStride": 12,
      "name": "floatBufferViews",
      "target": 34962
    }
  ],
  "buffers": [
    {
      "byteLength": 471248,
      "uri": "scene.bin"
    }
  ],
  "materials": [
    {
      "doubleSided": true,
      "name": "mat19",
      "pbrMetallicRoughness": {
        "baseColorFactor": [
          0.87,
          0.6,
          0.27,
          1.0
        ],
        "metallicFactor": 0.0
      }
    },
    {
      "doubleSided": true,
      "name": "mat21",
      "pbrMetallicRoughness": {
        "metallicFactor": 0.0
      }
    },
    {
      "doubleSided": true,
      "name": "mat9",
      "pbrMetallicRoughness": {
        "baseColorFactor": [
          0.55,
          0.76,
          0.29,
          1.0
        ],
        "metallicFactor": 0.0
      }
    }
  ],
  "meshes": [
    {
      "name": "Object_0",
      "primitives": [
        {
          "attributes": {
            "NORMAL": 1,
            "POSITION": 0,
            "TEXCOORD_0": 2
          },
          "indices": 3,
          "material": 1,
          "mode": 4
        }
      ]
    },
    {
      "name": "Object_1",
      "primitives": [
        {
          "attributes": {
            "NORMAL": 5,
            "POSITION": 4,
            "TEXCOORD_0": 6
          },
          "indices": 7,
          "material": 2,
          "mode": 4
        }
      ]
    },
    {
      "name": "Object_2",
      "primitives": [
        {
          "attributes": {
            "NORMAL": 9,
            "POSITION": 8,
            "TEXCOORD_0": 10
          },
          "indices": 11,
          "material": 0,
          "mode": 4
        }
      ]
    }
  ],
  "nodes": [
    {
      "children": [
        1
      ],
      "matrix": [
        1.0,
        0.0,
        0.0,
        0.0,
        0.0,
        2.220446049250313e-16,
        -1.0,
        0.0,
        0.0,
        1.0,
        2.220446049250313e-16,
        0.0,
        0.0,
        0.0,
        0.0,
        1.0
      ],
      "name": "Sketchfab_model"
    },
    {
      "children": [
        2,
        3,
        4
      ],
      "name": "model.obj.cleaner.materialmerger.gles"
    },
    {
      "mesh": 0,
      "name": "Object_2"
    },
    {
      "mesh": 1,
      "name": "Object_3"
    },
    {
      "mesh": 2,
      "name": "Object_4"
    }
  ],
  "scene": 0,
  "scenes": [
    {
      "name": "Sketchfab_Scene",
      "nodes": [
        0
      ]
    }
  ]
}
